<svg width="170" height="144" viewBox="0 0 170 144" fill="none" xmlns="http://www.w3.org/2000/svg">
<path d="M135.625 32H37.375C28.3313 32 21 35.8615 21 40.625V92.375C21 97.1385 28.3313 101 37.375 101H135.625C144.669 101 152 97.1385 152 92.375V40.625C152 35.8615 144.669 32 135.625 32Z" fill="url(#paint0_linear_28_274)"/>
<path d="M42.5895 45.984V41.9272H61.7031V45.984H54.5781V65.2H49.7145V45.984H42.5895ZM64.8509 65.2V41.9272H80.5327V45.984H69.7713V51.5295H79.7259V55.5863H69.7713V61.1431H80.5781V65.2H64.8509ZM104.979 50.075H100.001C99.9105 49.431 99.7249 48.859 99.4446 48.359C99.1643 47.8515 98.8045 47.4196 98.3651 47.0636C97.9257 46.7075 97.4181 46.4348 96.8423 46.2454C96.2741 46.056 95.6567 45.9613 94.9901 45.9613C93.7855 45.9613 92.7363 46.2606 91.8423 46.859C90.9484 47.45 90.2552 48.3136 89.7628 49.45C89.2704 50.5787 89.0241 51.95 89.0241 53.5636C89.0241 55.2227 89.2704 56.6166 89.7628 57.7454C90.2628 58.8742 90.9598 59.7265 91.8537 60.3022C92.7476 60.878 93.7817 61.1659 94.956 61.1659C95.6151 61.1659 96.2249 61.0787 96.7855 60.9045C97.3537 60.7303 97.8575 60.4765 98.2969 60.1431C98.7363 59.8022 99.0999 59.3893 99.3878 58.9045C99.6832 58.4196 99.8878 57.8666 100.001 57.2454L104.979 57.2681C104.85 58.3363 104.528 59.3666 104.013 60.359C103.505 61.3439 102.82 62.2265 101.956 63.0068C101.1 63.7795 100.077 64.3931 98.8878 64.8477C97.706 65.2946 96.3688 65.5181 94.8764 65.5181C92.8007 65.5181 90.9446 65.0484 89.3082 64.109C87.6795 63.1696 86.3916 61.8098 85.4446 60.0295C84.5052 58.2492 84.0355 56.0939 84.0355 53.5636C84.0355 51.0257 84.5128 48.8666 85.4673 47.0863C86.4219 45.306 87.7173 43.95 89.3537 43.0181C90.9901 42.0787 92.831 41.609 94.8764 41.609C96.2249 41.609 97.4749 41.7984 98.6264 42.1772C99.7855 42.556 100.812 43.109 101.706 43.8363C102.6 44.556 103.327 45.4386 103.888 46.484C104.456 47.5295 104.82 48.7265 104.979 50.075ZM108.507 65.2V41.9272H113.428V52.1886H113.734L122.109 41.9272H128.007L119.371 52.3477L128.109 65.2H122.223L115.848 55.6318L113.428 58.5863V65.2H108.507Z" fill="white"/>
<path d="M41.4759 90.3999V67.1272H50.6577C52.4152 67.1272 53.9152 67.4416 55.1577 68.0704C56.4077 68.6916 57.3584 69.5741 58.0099 70.7181C58.669 71.8544 58.9986 73.1916 58.9986 74.7294C58.9986 76.2749 58.6652 77.6044 57.9986 78.7181C57.3319 79.8241 56.366 80.6726 55.1009 81.2635C53.8433 81.8544 52.3205 82.1499 50.5327 82.1499H44.3849V78.1954H49.7372C50.6766 78.1954 51.4569 78.0666 52.0781 77.809C52.6993 77.5514 53.1615 77.1651 53.4645 76.6499C53.7751 76.1348 53.9304 75.4946 53.9304 74.7294C53.9304 73.9567 53.7751 73.3052 53.4645 72.7749C53.1615 72.2446 52.6955 71.8431 52.0668 71.5704C51.4455 71.2901 50.6615 71.1499 49.7145 71.1499H46.3963V90.3999H41.4759ZM54.044 79.809L59.8281 90.3999H54.3963L48.7372 79.809H54.044ZM83.8622 78.7635C83.8622 81.3014 83.3812 83.4605 82.419 85.2408C81.4645 87.0211 80.1615 88.381 78.5099 89.3204C76.866 90.2522 75.0175 90.7181 72.9645 90.7181C70.8963 90.7181 69.0402 90.2484 67.3963 89.309C65.7524 88.3696 64.4531 87.0098 63.4986 85.2294C62.544 83.4491 62.0668 81.2938 62.0668 78.7635C62.0668 76.2257 62.544 74.0666 63.4986 72.2863C64.4531 70.506 65.7524 69.1499 67.3963 68.2181C69.0402 67.2787 70.8963 66.809 72.9645 66.809C75.0175 66.809 76.866 67.2787 78.5099 68.2181C80.1615 69.1499 81.4645 70.506 82.419 72.2863C83.3812 74.0666 83.8622 76.2257 83.8622 78.7635ZM78.8736 78.7635C78.8736 77.1196 78.6274 75.7332 78.1349 74.6044C77.6501 73.4757 76.9645 72.6196 76.0781 72.0363C75.1918 71.4529 74.1539 71.1613 72.9645 71.1613C71.7751 71.1613 70.7372 71.4529 69.8509 72.0363C68.9645 72.6196 68.2751 73.4757 67.7827 74.6044C67.2978 75.7332 67.0554 77.1196 67.0554 78.7635C67.0554 80.4075 67.2978 81.7938 67.7827 82.9226C68.2751 84.0514 68.9645 84.9075 69.8509 85.4908C70.7372 86.0741 71.7751 86.3658 72.9645 86.3658C74.1539 86.3658 75.1918 86.0741 76.0781 85.4908C76.9645 84.9075 77.6501 84.0514 78.1349 82.9226C78.6274 81.7938 78.8736 80.4075 78.8736 78.7635ZM108.041 75.2749H103.064C102.973 74.631 102.787 74.059 102.507 73.559C102.227 73.0514 101.867 72.6196 101.428 72.2635C100.988 71.9075 100.481 71.6347 99.9048 71.4454C99.3366 71.256 98.7192 71.1613 98.0526 71.1613C96.848 71.1613 95.7988 71.4605 94.9048 72.059C94.0109 72.6499 93.3177 73.5135 92.8253 74.6499C92.3329 75.7787 92.0866 77.1499 92.0866 78.7635C92.0866 80.4226 92.3329 81.8166 92.8253 82.9454C93.3253 84.0741 94.0223 84.9264 94.9162 85.5022C95.8101 86.0779 96.8442 86.3658 98.0185 86.3658C98.6776 86.3658 99.2874 86.2787 99.848 86.1044C100.416 85.9302 100.92 85.6764 101.359 85.3431C101.799 85.0022 102.162 84.5893 102.45 84.1044C102.746 83.6196 102.95 83.0666 103.064 82.4454L108.041 82.4681C107.912 83.5363 107.59 84.5666 107.075 85.559C106.568 86.5438 105.882 87.4264 105.018 88.2067C104.162 88.9794 103.14 89.5931 101.95 90.0476C100.768 90.4946 99.4313 90.7181 97.9389 90.7181C95.8632 90.7181 94.0071 90.2484 92.3707 89.309C90.742 88.3696 89.4541 87.0098 88.5071 85.2294C87.5677 83.4491 87.098 81.2938 87.098 78.7635C87.098 76.2257 87.5753 74.0666 88.5298 72.2863C89.4844 70.506 90.7798 69.1499 92.4162 68.2181C94.0526 67.2787 95.8935 66.809 97.9389 66.809C99.2874 66.809 100.537 66.9984 101.689 67.3772C102.848 67.756 103.875 68.309 104.768 69.0363C105.662 69.756 106.39 70.6385 106.95 71.684C107.518 72.7294 107.882 73.9264 108.041 75.2749ZM111.57 90.3999V67.1272H116.49V77.3885H116.797L125.172 67.1272H131.07L122.433 77.5476L131.172 90.3999H125.286L118.911 80.8317L116.49 83.7863V90.3999H111.57Z" fill="white"/>
<defs>
<linearGradient id="paint0_linear_28_274" x1="21" y1="32" x2="5711.09" y2="10834.9" gradientUnits="userSpaceOnUse">
<stop stop-color="#AD91FF"/>
<stop offset="1" stop-color="#3A7BD5"/>
</linearGradient>
</defs>
</svg>
